<?xml version="1.0" standalone="no"?>
<!DOCTYPE svg PUBLIC "-//W3C//DTD SVG 20010904//EN"
 "http://www.w3.org/TR/2001/REC-SVG-20010904/DTD/svg10.dtd">
<svg version="1.0" xmlns="http://www.w3.org/2000/svg"
 width="800.000000pt" height="800.000000pt" viewBox="0 0 800.000000 800.000000"
 preserveAspectRatio="xMidYMid meet">
<metadata>
Created by potrace 1.14, written by Peter Selinger 2001-2017
</metadata>
<g transform="translate(0.000000,800.000000) scale(0.100000,-0.100000)"
fill="#000000" stroke="none">
<path d="M2496 7628 c-118 -117 -529 -524 -913 -905 -384 -380 -871 -862
-1081 -1071 -325 -321 -383 -383 -375 -398 5 -11 9 -535 8 -1252 0 -1012 -3
-1234 -14 -1241 -9 -6 34 -55 156 -175 92 -92 460 -456 816 -809 356 -353 842
-835 1080 -1070 238 -236 452 -447 477 -470 l45 -42 1310 2 c721 0 1313 1
1317 2 4 1 124 116 265 256 142 141 555 550 918 909 363 360 795 788 960 953
l300 298 0 1220 c-1 671 -5 1230 -9 1243 -4 13 -12 22 -18 20 -6 -2 -211 -203
-457 -446 -1026 -1015 -1301 -1288 -2001 -1981 -404 -401 -856 -848 -1003
-994 l-268 -266 -209 207 c-115 114 -492 487 -837 829 -345 342 -842 833
-1103 1092 l-474 470 306 303 c169 167 635 628 1035 1025 400 396 847 839 992
982 l265 262 220 -220 c122 -121 272 -270 334 -331 61 -62 112 -115 112 -119
0 -9 9 0 -686 -688 -352 -347 -764 -756 -918 -908 l-279 -277 54 -56 c30 -31
57 -59 62 -62 4 -4 264 -260 578 -571 314 -310 572 -565 574 -567 2 -2 109
101 239 230 583 577 1631 1616 1936 1918 184 182 483 478 663 657 l329 325
-522 517 c-287 284 -725 717 -973 963 l-452 448 -1272 0 -1272 0 -215 -212z"/>
</g>
</svg>
