<svg width="1920" height="258" viewBox="0 0 1920 258" fill="none" xmlns="http://www.w3.org/2000/svg">
    <!--    <rect x="0%" y="0" width="100%" height="100%" fill="url(#gradient)">-->
    <!--        <animate attributeType="XML"-->
    <!--                 attributeName="x"-->
    <!--                 from="-100%"-->
    <!--                 to="100%"-->
    <!--                 dur="10s"-->
    <!--                 repeatCount="indefinite"/>-->
    <!--    </rect>-->

    <path id="line"
          d="M1919 136.666C1842.37 57.9996 1765.73 57.9996 1689.1 136.666C1612.47 215.333 1535.83 215.333 1459.2 136.666C1382.57 57.9996 1305.93 57.9996 1229.3 136.666C1152.67 215.333 1076.03 215.333 999.4 136.666C922.767 57.9996 846.133 57.9996 769.5 136.666C692.867 215.333 616.233 215.333 539.6 136.666C462.967 57.9996 386.333 57.9996 309.7 136.666C233.067 215.333 156.433 215.333 79.8 136.666C3.16665 57.9996 -73.4667 57.9996 -150.1 136.666C-226.733 215.333 -303.367 215.333 -380 136.666"
          stroke="url(#pattern)"
          stroke-width="2"/>

    <g opacity="0.8">
        <path opacity="0.5"
              d="M1973.47 136.467C1895.07 58.066 1816.67 58.066 1738.26 136.467C1659.86 214.867 1581.46 214.867 1503.06 136.467C1424.66 58.066 1346.26 58.066 1267.86 136.467C1189.46 214.867 1111.06 214.867 1032.66 136.467C954.26 58.066 875.86 58.066 797.459 136.467C719.059 214.867 640.658 214.867 562.258 136.467C483.857 58.066 405.457 58.066 327.056 136.467C248.656 214.867 170.255 214.867 91.8549 136.467C13.4545 58.066 -64.946 58.066 -143.347 136.467C-221.747 214.867 -300.147 214.867 -378.548 136.467"
              stroke="url(#paint1_linear_946:826)" stroke-width="2"/>
        <path opacity="0.5"
              d="M1993.45 136.467C1915.05 58.066 1836.65 58.066 1758.25 136.467C1679.85 214.867 1601.45 214.867 1523.05 136.467C1444.65 58.066 1366.25 58.066 1287.85 136.467C1209.45 214.867 1131.05 214.867 1052.64 136.467C974.244 58.066 895.844 58.066 817.443 136.467C739.043 214.867 660.642 214.867 582.242 136.467C503.841 58.066 425.441 58.066 347.04 136.467C268.64 214.867 190.239 214.867 111.839 136.467C33.4385 58.066 -44.962 58.066 -123.362 136.467C-201.763 214.867 -280.163 214.867 -358.564 136.467"
              stroke="url(#paint2_linear_946:826)" stroke-width="2"/>
        <path opacity="0.5"
              d="M2013.43 136.467C1935.03 58.066 1856.63 58.066 1778.23 136.467C1699.83 214.867 1621.43 214.867 1543.03 136.467C1464.63 58.066 1386.23 58.066 1307.83 136.467C1229.43 214.867 1151.03 214.867 1072.63 136.467C994.228 58.066 915.828 58.066 837.427 136.467C759.027 214.867 680.626 214.867 602.226 136.467C523.825 58.066 445.425 58.066 367.024 136.467C288.624 214.867 210.223 214.867 131.823 136.467C53.4225 58.066 -24.978 58.066 -103.378 136.467C-181.779 214.867 -260.179 214.867 -338.58 136.467"
              stroke="url(#paint3_linear_946:826)" stroke-width="2"/>
        <path opacity="0.5"
              d="M2031.52 136.467C1953.11 58.066 1874.71 58.066 1796.31 136.467C1717.91 214.867 1639.51 214.867 1561.11 136.467C1482.71 58.066 1404.31 58.066 1325.91 136.467C1247.51 214.867 1169.11 214.867 1090.71 136.467C1012.31 58.066 933.909 58.066 855.508 136.467C777.108 214.867 698.707 214.867 620.307 136.467C541.906 58.066 463.506 58.066 385.105 136.467C306.705 214.867 228.304 214.867 149.904 136.467C71.5033 58.066 -6.89714 58.066 -85.2976 136.467C-163.698 214.867 -242.099 214.867 -320.499 136.467"
              stroke="url(#paint4_linear_946:826)" stroke-width="2"/>
        <path opacity="0.5"
              d="M2049.6 136.467C1971.2 58.066 1892.8 58.066 1814.39 136.467C1735.99 214.867 1657.59 214.867 1579.19 136.467C1500.79 58.066 1422.39 58.066 1343.99 136.467C1265.59 214.867 1187.19 214.867 1108.79 136.467C1030.39 58.066 951.989 58.066 873.589 136.467C795.188 214.867 716.788 214.867 638.387 136.467C559.987 58.066 481.587 58.066 403.186 136.467C324.786 214.867 246.385 214.867 167.985 136.467C89.5842 58.066 11.1837 58.066 -67.2168 136.467C-145.617 214.867 -224.018 214.867 -302.418 136.467"
              stroke="url(#paint5_linear_946:826)" stroke-width="2"/>
        <path opacity="0.5"
              d="M2067.68 136.467C1989.28 58.066 1910.88 58.066 1832.48 136.467C1754.07 214.867 1675.67 214.867 1597.27 136.467C1518.87 58.066 1440.47 58.066 1362.07 136.467C1283.67 214.867 1205.27 214.867 1126.87 136.467C1048.47 58.066 970.07 58.066 891.67 136.467C813.269 214.867 734.869 214.867 656.468 136.467C578.068 58.066 499.667 58.066 421.267 136.467C342.866 214.867 264.466 214.867 186.065 136.467C107.665 58.066 29.2644 58.066 -49.1361 136.467C-127.537 214.867 -205.937 214.867 -284.338 136.467"
              stroke="url(#paint6_linear_946:826)" stroke-width="2"/>
        <path opacity="0.4"
              d="M2085.76 136.467C2007.36 58.066 1928.96 58.066 1850.56 136.467C1772.16 214.867 1693.76 214.867 1615.35 136.467C1536.95 58.066 1458.55 58.066 1380.15 136.467C1301.75 214.867 1223.35 214.867 1144.95 136.467C1066.55 58.066 988.151 58.066 909.75 136.467C831.35 214.867 752.949 214.867 674.549 136.467C596.149 58.066 517.748 58.066 439.348 136.467C360.947 214.867 282.547 214.867 204.146 136.467C125.746 58.066 47.3452 58.066 -31.0553 136.467C-109.456 214.867 -187.856 214.867 -266.257 136.467"
              stroke="url(#paint7_linear_946:826)" stroke-width="2"/>
        <path opacity="0.3"
              d="M2103.84 136.467C2025.44 58.066 1947.04 58.066 1868.64 136.467C1790.24 214.867 1711.84 214.867 1633.44 136.467C1555.04 58.066 1476.63 58.066 1398.23 136.467C1319.83 214.867 1241.43 214.867 1163.03 136.467C1084.63 58.066 1006.23 58.066 927.831 136.467C849.431 214.867 771.03 214.867 692.63 136.467C614.229 58.066 535.829 58.066 457.428 136.467C379.028 214.867 300.627 214.867 222.227 136.467C143.826 58.066 65.426 58.066 -12.9745 136.467C-91.375 214.867 -169.775 214.867 -248.176 136.467"
              stroke="url(#paint8_linear_946:826)" stroke-width="2"/>
        <path opacity="0.2"
              d="M2121.92 136.467C2043.52 58.066 1965.12 58.066 1886.72 136.467C1808.32 214.867 1729.92 214.867 1651.52 136.467C1573.12 58.066 1494.72 58.066 1416.31 136.467C1337.91 214.867 1259.51 214.867 1181.11 136.467C1102.71 58.066 1024.31 58.066 945.912 136.467C867.512 214.867 789.111 214.867 710.711 136.467C632.31 58.066 553.91 58.066 475.509 136.467C397.109 214.867 318.708 214.867 240.308 136.467C161.907 58.066 83.5068 58.066 5.10632 136.467C-73.2942 214.867 -151.695 214.867 -230.095 136.467"
              stroke="url(#paint9_linear_946:826)" stroke-width="2"/>
        <path opacity="0.1"
              d="M2140 136.467C2061.6 58.0663 1983.2 58.0663 1904.8 136.467C1826.4 214.867 1748 214.867 1669.6 136.467C1591.2 58.0663 1512.8 58.0663 1434.4 136.467C1356 214.867 1277.59 214.867 1199.19 136.467C1120.79 58.0663 1042.39 58.0663 963.993 136.467C885.592 214.867 807.192 214.867 728.791 136.467C650.391 58.0663 571.99 58.0663 493.59 136.467C415.19 214.867 336.789 214.867 258.389 136.467C179.988 58.0663 101.588 58.0663 23.1871 136.467C-55.2133 214.867 -133.614 214.867 -212.014 136.467"
              stroke="url(#paint10_linear_946:826)" stroke-width="2"/>
    </g>
    <path d="M425 256.942L425 37.7978" stroke="url(#paint11_linear_946:826)" stroke-dasharray="5 5"/>
    <path d="M885 256.942L885 37.7978" stroke="url(#paint12_linear_946:826)" stroke-dasharray="5 5"/>
    <path d="M1346 257.847L1346 38.7033" stroke="url(#paint13_linear_946:826)" stroke-dasharray="5 5"/>
    <path d="M418.592 29.208C416.668 29.208 415.16 28.6187 414.068 27.44C412.976 26.2613 412.43 24.6233 412.43 22.526C412.43 20.4113 412.811 18.444 413.574 16.624C414.337 14.7867 415.411 13.322 416.798 12.23C418.202 11.138 419.814 10.592 421.634 10.592C423.558 10.592 425.057 11.1813 426.132 12.36C427.224 13.5387 427.77 15.1767 427.77 17.274C427.77 19.3887 427.389 21.3647 426.626 23.202C425.863 25.022 424.78 26.478 423.376 27.57C421.989 28.662 420.395 29.208 418.592 29.208ZM418.8 26.894C420.083 26.894 421.209 26.4087 422.18 25.438C423.151 24.4673 423.887 23.2453 424.39 21.772C424.91 20.2813 425.17 18.7993 425.17 17.326C425.17 15.9047 424.841 14.8127 424.182 14.05C423.523 13.2873 422.605 12.906 421.426 12.906C420.126 12.906 418.991 13.3913 418.02 14.362C417.049 15.3327 416.304 16.5633 415.784 18.054C415.281 19.5273 415.03 21.0007 415.03 22.474C415.03 23.8953 415.359 24.9873 416.018 25.75C416.677 26.5127 417.604 26.894 418.8 26.894ZM437.392 10.8L433.752 29H431.178L434.35 13.062H430.268L430.71 10.8H437.392Z"
          fill="#2798D8"/>
    <path d="M878.592 28.875C876.668 28.875 875.16 28.2857 874.068 27.107C872.976 25.9283 872.43 24.2903 872.43 22.193C872.43 20.0783 872.811 18.111 873.574 16.291C874.337 14.4537 875.411 12.989 876.798 11.897C878.202 10.805 879.814 10.259 881.634 10.259C883.558 10.259 885.057 10.8483 886.132 12.027C887.224 13.2057 887.77 14.8437 887.77 16.941C887.77 19.0557 887.389 21.0317 886.626 22.869C885.863 24.689 884.78 26.145 883.376 27.237C881.989 28.329 880.395 28.875 878.592 28.875ZM878.8 26.561C880.083 26.561 881.209 26.0757 882.18 25.105C883.151 24.1343 883.887 22.9123 884.39 21.439C884.91 19.9483 885.17 18.4663 885.17 16.993C885.17 15.5717 884.841 14.4797 884.182 13.717C883.523 12.9543 882.605 12.573 881.426 12.573C880.126 12.573 878.991 13.0583 878.02 14.029C877.049 14.9997 876.304 16.2303 875.784 17.721C875.281 19.1943 875.03 20.6677 875.03 22.141C875.03 23.5623 875.359 24.6543 876.018 25.417C876.677 26.1797 877.604 26.561 878.8 26.561ZM892.244 26.405H901.344L900.902 28.667H887.824L888.188 26.899L897.054 19.801C898.25 18.8303 899.074 18.007 899.524 17.331C899.992 16.6377 900.226 15.9097 900.226 15.147C900.226 14.3323 899.923 13.691 899.316 13.223C898.727 12.755 897.843 12.521 896.664 12.521C895.78 12.521 894.922 12.703 894.09 13.067C893.276 13.4137 892.565 13.9077 891.958 14.549L890.216 13.041C890.979 12.1743 891.958 11.4983 893.154 11.013C894.35 10.5103 895.642 10.259 897.028 10.259C898.848 10.259 900.27 10.675 901.292 11.507C902.315 12.339 902.826 13.4397 902.826 14.809C902.826 15.9183 902.532 16.967 901.942 17.955C901.353 18.9257 900.304 20.009 898.796 21.205L892.244 26.405Z"
          fill="#2798D8"/>
    <path d="M1338.59 28.875C1336.67 28.875 1335.16 28.2857 1334.07 27.107C1332.98 25.9283 1332.43 24.2903 1332.43 22.193C1332.43 20.0783 1332.81 18.111 1333.57 16.291C1334.34 14.4537 1335.41 12.989 1336.8 11.897C1338.2 10.805 1339.81 10.259 1341.63 10.259C1343.56 10.259 1345.06 10.8483 1346.13 12.027C1347.22 13.2057 1347.77 14.8437 1347.77 16.941C1347.77 19.0557 1347.39 21.0317 1346.63 22.869C1345.86 24.689 1344.78 26.145 1343.38 27.237C1341.99 28.329 1340.39 28.875 1338.59 28.875ZM1338.8 26.561C1340.08 26.561 1341.21 26.0757 1342.18 25.105C1343.15 24.1343 1343.89 22.9123 1344.39 21.439C1344.91 19.9483 1345.17 18.4663 1345.17 16.993C1345.17 15.5717 1344.84 14.4797 1344.18 13.717C1343.52 12.9543 1342.6 12.573 1341.43 12.573C1340.13 12.573 1338.99 13.0583 1338.02 14.029C1337.05 14.9997 1336.3 16.2303 1335.78 17.721C1335.28 19.1943 1335.03 20.6677 1335.03 22.141C1335.03 23.5623 1335.36 24.6543 1336.02 25.417C1336.68 26.1797 1337.6 26.561 1338.8 26.561ZM1362.96 12.235L1356.98 18.163C1358.44 18.3537 1359.55 18.8563 1360.33 19.671C1361.11 20.4683 1361.5 21.5083 1361.5 22.791C1361.5 23.9697 1361.18 25.0183 1360.54 25.937C1359.9 26.8557 1358.99 27.575 1357.81 28.095C1356.63 28.615 1355.28 28.875 1353.76 28.875C1352.39 28.875 1351.14 28.6757 1350.01 28.277C1348.9 27.861 1348.03 27.2977 1347.39 26.587L1348.74 24.585C1349.26 25.1743 1349.97 25.651 1350.87 26.015C1351.79 26.379 1352.8 26.561 1353.91 26.561C1355.49 26.561 1356.71 26.2403 1357.58 25.599C1358.46 24.9403 1358.9 24.0477 1358.9 22.921C1358.9 21.0837 1357.57 20.165 1354.9 20.165H1353.52L1353.89 18.345L1359.53 12.729H1350.82L1351.29 10.467H1363.3L1362.96 12.235Z"
          fill="#2798D8"/>
    <circle cx="425" cy="78" r="5" fill="#FFB800"/>
    <circle cx="885" cy="77.667" r="5" fill="#FFB800"/>
    <circle cx="1346" cy="77.667" r="5" fill="#FFB800"/>
    <defs>
        <linearGradient id="gradient" x1="100%" y1="0%" x2="0%" y2="0%">
            <stop offset="0%" stop-opacity="0" style="stop-color:#28C2D7;"/>
            <stop offset="12%" stop-opacity="0.54" style="stop-color:#28C2D7;"/>
            <stop offset="34%" stop-opacity="1" style="stop-color:#28C2D7;"/>
            <stop offset="46%" stop-opacity="1" style="stop-color:#28C2D7;"/>
            <stop offset="60%" stop-opacity="0.78" style="stop-color:#28C2D7;"/>
            <stop offset="64%" stop-opacity="0.58" style="stop-color:#28C2D7;"/>
            <stop offset="100%" stop-opacity="0" style="stop-color:#28C2D7;"/>
        </linearGradient>
        <linearGradient id="paint0_linear_946:826" x1="0" y1="195.666" x2="30%" y2="195.666"
                        gradientUnits="userSpaceOnUse">
            <stop stop-color="white" stop-opacity="0"/>
            <stop offset="0.177083" stop-color="#28C2D7" stop-opacity="0.543689"/>
            <stop offset="0.536458" stop-color="#43A4B9"/>
            <stop offset="0.75" stop-color="#1AC9D5" stop-opacity="0.786517"/>
            <stop offset="0.8125" stop-color="#0CC5FF" stop-opacity="0.589888"/>
            <stop offset="1" stop-color="white" stop-opacity="0"/>
        </linearGradient>
        <linearGradient id="paint0_linear_946:827" x1="30%" y1="195.666" x2="60%" y2="195.666"
                        gradientUnits="userSpaceOnUse">
            <stop stop-color="white" stop-opacity="0"/>
            <stop offset="0.177083" stop-color="#28C2D7" stop-opacity="0.543689"/>
            <stop offset="0.536458" stop-color="#43A4B9"/>
            <stop offset="0.75" stop-color="#1AC9D5" stop-opacity="0.786517"/>
            <stop offset="0.8125" stop-color="#0CC5FF" stop-opacity="0.589888"/>
            <stop offset="1" stop-color="white" stop-opacity="0"/>
        </linearGradient>
        <linearGradient id="paint1_linear_946:826" x1="1689.97" y1="195.267" x2="181.393" y2="195.267"
                        gradientUnits="userSpaceOnUse">
            <stop stop-color="#274455" stop-opacity="0"/>
            <stop offset="0.635417" stop-color="#2798D8"/>
            <stop offset="1" stop-color="#216169" stop-opacity="0"/>
        </linearGradient>
        <linearGradient id="paint2_linear_946:826" x1="1709.96" y1="195.267" x2="201.377" y2="195.267"
                        gradientUnits="userSpaceOnUse">
            <stop stop-color="#274455" stop-opacity="0"/>
            <stop offset="0.635417" stop-color="#2798D8"/>
            <stop offset="1" stop-color="#216169" stop-opacity="0"/>
        </linearGradient>
        <linearGradient id="paint3_linear_946:826" x1="1729.94" y1="195.267" x2="221.361" y2="195.267"
                        gradientUnits="userSpaceOnUse">
            <stop stop-color="#274455" stop-opacity="0"/>
            <stop offset="0.635417" stop-color="#2798D8"/>
            <stop offset="1" stop-color="#216169" stop-opacity="0"/>
        </linearGradient>
        <linearGradient id="paint4_linear_946:826" x1="1748.02" y1="195.267" x2="239.442" y2="195.267"
                        gradientUnits="userSpaceOnUse">
            <stop stop-color="#274455" stop-opacity="0"/>
            <stop offset="0.635417" stop-color="#2798D8"/>
            <stop offset="1" stop-color="#216169" stop-opacity="0"/>
        </linearGradient>
        <linearGradient id="paint5_linear_946:826" x1="1766.1" y1="195.267" x2="257.523" y2="195.267"
                        gradientUnits="userSpaceOnUse">
            <stop stop-color="#274455" stop-opacity="0"/>
            <stop offset="0.635417" stop-color="#2798D8"/>
            <stop offset="1" stop-color="#216169" stop-opacity="0"/>
        </linearGradient>
        <linearGradient id="paint6_linear_946:826" x1="1784.18" y1="195.267" x2="275.604" y2="195.267"
                        gradientUnits="userSpaceOnUse">
            <stop stop-color="#274455" stop-opacity="0"/>
            <stop offset="0.635417" stop-color="#2798D8"/>
            <stop offset="1" stop-color="#216169" stop-opacity="0"/>
        </linearGradient>
        <linearGradient id="paint7_linear_946:826" x1="1802.26" y1="195.267" x2="293.684" y2="195.267"
                        gradientUnits="userSpaceOnUse">
            <stop stop-color="#274455" stop-opacity="0"/>
            <stop offset="0.635417" stop-color="#2798D8"/>
            <stop offset="1" stop-color="#216169" stop-opacity="0"/>
        </linearGradient>
        <linearGradient id="paint8_linear_946:826" x1="1820.35" y1="195.267" x2="311.765" y2="195.267"
                        gradientUnits="userSpaceOnUse">
            <stop stop-color="#274455" stop-opacity="0"/>
            <stop offset="0.635417" stop-color="#2798D8"/>
            <stop offset="1" stop-color="#216169" stop-opacity="0"/>
        </linearGradient>
        <linearGradient id="paint9_linear_946:826" x1="1838.43" y1="195.267" x2="329.846" y2="195.267"
                        gradientUnits="userSpaceOnUse">
            <stop stop-color="#274455" stop-opacity="0"/>
            <stop offset="0.635417" stop-color="#2798D8"/>
            <stop offset="1" stop-color="#216169" stop-opacity="0"/>
        </linearGradient>
        <linearGradient id="paint10_linear_946:826" x1="1856.51" y1="195.267" x2="347.927" y2="195.267"
                        gradientUnits="userSpaceOnUse">
            <stop stop-color="#274455" stop-opacity="0"/>
            <stop offset="0.635417" stop-color="#2798D8"/>
            <stop offset="1" stop-color="#216169" stop-opacity="0"/>
        </linearGradient>
        <linearGradient id="paint11_linear_946:826" x1="425" y1="31.9469" x2="425" y2="261.197"
                        gradientUnits="userSpaceOnUse">
            <stop stop-color="white" stop-opacity="0"/>
            <stop offset="0.413618" stop-color="white"/>
            <stop offset="1" stop-color="white" stop-opacity="0"/>
        </linearGradient>
        <linearGradient id="paint12_linear_946:826" x1="885" y1="31.9469" x2="885" y2="261.197"
                        gradientUnits="userSpaceOnUse">
            <stop stop-color="white" stop-opacity="0"/>
            <stop offset="0.413618" stop-color="white"/>
            <stop offset="1" stop-color="white" stop-opacity="0"/>
        </linearGradient>
        <linearGradient id="paint13_linear_946:826" x1="1346" y1="32.8524" x2="1346" y2="262.103"
                        gradientUnits="userSpaceOnUse">
            <stop stop-color="white" stop-opacity="0"/>
            <stop offset="0.413618" stop-color="white"/>
            <stop offset="1" stop-color="white" stop-opacity="0"/>
        </linearGradient>
        <linearGradient id="paint0_linear_946:826" x1="1641.9" y1="195.666" x2="167.32" y2="195.666"
                        gradientUnits="userSpaceOnUse">
            <stop stop-color="white" stop-opacity="0"/>
            <stop offset="0.177083" stop-color="#28C2D7" stop-opacity="0.543689"/>
            <stop offset="0.536458" stop-color="#43A4B9"/>
            <stop offset="0.75" stop-color="#1AC9D5" stop-opacity="0.786517"/>
            <stop offset="0.8125" stop-color="#0CC5FF" stop-opacity="0.589888"/>
            <stop offset="1" stop-color="white" stop-opacity="0"/>
        </linearGradient>
    </defs>
    <pattern id="pattern" x="0" y="0" width="100%" height="100%" patternUnits="userSpaceOnUse">
        <rect x="-100%" y="0" width="40%" height="100%" fill="url(#gradient)">
            <animate attributeType="XML"
                     attributeName="x"
                     from="-100%" to="100%"
                     dur="8.8s"
                     repeatCount="indefinite"/>
        </rect>
        <rect x="-100%" y="0" width="40%" height="100%" fill="url(#gradient)">
            <animate attributeType="XML"
                     attributeName="x"
                     from="-100%" to="100%"
                     dur="8.8s"
                     begin="2.2s"
                     repeatCount="indefinite"/>
        </rect>
        <rect x="-100%" y="0" width="40%" height="100%" fill="url(#gradient)">
            <animate attributeType="XML"
                     attributeName="x"
                     from="-100%" to="100%"
                     dur="8.8s"
                     begin="4.4s"
                     repeatCount="indefinite"/>
        </rect>
        <rect x="-100%" y="0" width="40%" height="100%" fill="url(#gradient)">
            <animate attributeType="XML"
                     attributeName="x"
                     from="-100%" to="100%"
                     dur="8.8s"
                     begin="6.6s"
                     repeatCount="indefinite"/>
        </rect>
    </pattern>

</svg>