<svg width="135" height="28" viewBox="0 0 135 28" fill="none" xmlns="http://www.w3.org/2000/svg">
<g clip-path="url(#clip0_807:1747)">
<path d="M15.6067 8.96874C15.3928 8.64223 15.1846 8.31343 14.9875 7.99038L14.9648 7.95698C14.3584 7.15712 13.6195 6.50584 12.7706 6.02213C11.5898 5.34378 10.2276 5 8.72235 5H8.2363C8.01304 5 7.7892 5.01555 7.57176 5.04549C5.33046 5.27122 3.46882 6.24901 2.03741 7.95237C0.685654 9.57453 0.000183105 11.4915 0.000183105 13.6481C0.000183105 16.164 0.892633 18.2871 2.65253 19.9576C4.35022 21.5665 6.45024 22.3825 8.89445 22.3825C10.366 22.3825 11.8828 21.9783 13.3997 21.183C13.8927 20.932 14.5003 20.5381 15.2067 20.0135L15.3695 19.8926V16.2302L14.6986 16.7962C13.9404 17.436 13.3044 17.9128 12.802 18.2163C11.3206 19.1405 9.95492 19.6087 8.74328 19.6087C7.5456 19.6087 6.48454 19.3271 5.59035 18.7714C4.9572 18.3792 4.42115 17.8639 3.99731 17.2391C3.9008 17.0571 3.80487 16.8751 3.70894 16.6937L15.8335 9.3154L15.6067 8.96874ZM11.6799 8.66239L2.88858 14.0114C2.88742 13.9337 2.88742 13.845 2.88742 13.7465C2.88742 12.8402 3.0316 11.9994 3.31475 11.2479C3.7287 10.1596 4.4322 9.27797 5.40314 8.63014C5.95605 8.26793 6.49268 8.01053 6.99734 7.86542C7.50548 7.71915 8.02642 7.64487 8.54619 7.64487C9.39561 7.64487 10.2683 7.87636 11.1404 8.333C11.3003 8.41708 11.4811 8.52706 11.6799 8.66239Z" fill="white"/>
<path d="M28.2993 4.70532C26.9354 4.70532 25.6441 5.03931 24.4638 5.69693C23.6278 6.15415 22.8847 6.75707 22.2522 7.49358V5.14988L19.4301 5.72112V28.0012L22.4254 27.1202V19.7453C22.4336 19.7545 22.4417 19.7632 22.4498 19.7724L22.4714 19.7943C23.1894 20.4755 23.9347 21.0099 24.6871 21.3824C25.8051 21.9358 27.0069 22.2163 28.2598 22.2163C30.7354 22.2163 32.8441 21.3784 34.5284 19.7252C36.2133 18.0707 37.0674 16.0248 37.0674 13.6425C37.0674 11.2216 36.2058 9.10537 34.5063 7.35307C32.8011 5.59616 30.7133 4.70532 28.2993 4.70532ZM34.1145 13.6851C34.1145 15.408 33.536 16.7734 32.3441 17.86C31.2179 18.8954 29.8075 19.4205 28.1511 19.4205C26.4569 19.4205 25.083 18.8101 23.9522 17.5554C22.8243 16.3046 22.2522 14.7648 22.2522 12.9791C22.2522 11.426 22.9295 10.1367 24.3243 9.03685C25.626 8.00262 27.0952 7.4786 28.6912 7.4786C30.2639 7.4786 31.5389 8.08209 32.5895 9.32304C33.6011 10.526 34.1145 11.9938 34.1145 13.6851Z" fill="white"/>
<path d="M47.9803 7.73389C48.0715 7.72525 48.2506 7.71431 48.5884 7.71431C49.6128 7.71431 50.6187 7.95847 51.5791 8.44103L51.5873 8.44506C51.8913 8.5896 52.2594 8.82627 52.6803 9.14875L53.0065 9.39866L54.7018 7.17014L54.3431 6.93346C53.6815 6.49639 53.11 6.16931 52.6454 5.96143C51.2158 5.31245 49.764 4.98364 48.3297 4.98364C45.9192 4.98364 43.8901 5.84396 42.2982 7.53983C40.7139 9.22764 39.911 11.2811 39.911 13.6427C39.911 16.0537 40.7692 18.1181 42.461 19.7789C44.1517 21.4391 46.2715 22.2804 48.7617 22.2804C50.1814 22.2804 51.5437 21.9095 52.8129 21.1759C53.2198 20.9369 53.7047 20.5776 54.2542 20.1071L54.5402 19.8624L52.9105 17.6897L52.5774 18.0197C52.1425 18.4504 51.5663 18.8126 50.8646 19.0977C50.1623 19.3827 49.3314 19.5272 48.3948 19.5272C46.771 19.5272 45.4494 18.9543 44.3541 17.7755C43.307 16.6446 42.7982 15.3276 42.7982 13.7486C42.7982 12.1552 43.261 10.7876 44.175 9.68313C45.1471 8.50668 46.3907 7.86864 47.9803 7.73389Z" fill="white"/>
<path d="M66.37 4.89771C64.0635 4.89771 62.0432 5.76378 60.3664 7.47232C58.692 9.1774 57.8431 11.2424 57.8431 13.6108C57.8431 16.0116 58.7199 18.076 60.4496 19.7465C62.1757 21.4142 64.2839 22.2595 66.7159 22.2595C69.0938 22.2595 71.1502 21.3934 72.8276 19.6855C74.502 17.9804 75.3508 15.9436 75.3508 13.6322C75.3508 11.1773 74.5049 9.08642 72.8363 7.41646C71.1653 5.74478 68.9903 4.89771 66.37 4.89771ZM72.463 13.5677C72.463 15.2019 71.9002 16.5672 70.7432 17.7426C69.5886 18.915 68.2287 19.4851 66.5857 19.4851C64.9263 19.4851 63.5548 18.9248 62.3926 17.7713C61.2304 16.6179 60.6653 15.2572 60.6653 13.6103C60.6653 11.9467 61.2246 10.5629 62.3763 9.3801C63.5234 8.20134 64.8792 7.62837 66.5211 7.62837C68.1793 7.62837 69.5537 8.19904 70.7235 9.37261C71.8938 10.5479 72.463 11.9202 72.463 13.5677Z" fill="white"/>
<path d="M87.03 19.3434L87.0172 19.3463C86.6184 19.4384 86.2062 19.4857 85.7922 19.4857C85.4567 19.4857 85.1079 19.4367 84.7567 19.34C84.4265 19.249 84.137 19.1004 83.8945 18.8954C83.6125 18.661 83.4439 18.3011 83.3776 17.7938C83.3009 17.2088 83.2625 16.3807 83.2625 15.3326V8.18523H88.0137V5.64632H83.2625V0.138916L80.4619 2.07031V5.64632H78.7904L78.0625 8.18523H80.4619V15.0758C80.4619 16.6997 80.5207 17.8013 80.641 18.4411C80.8602 19.6521 81.3858 20.5648 82.2021 21.1527C82.7323 21.5535 83.2893 21.8282 83.8585 21.9693C84.4067 22.1052 85.0067 22.1737 85.6416 22.1737C86.0951 22.1737 86.6073 22.1207 87.162 22.0171C87.33 21.9866 87.5294 21.9411 87.7544 21.8818L88.0567 21.8023V18.972L87.4986 19.1931C87.3062 19.2691 87.1486 19.3198 87.03 19.3434Z" fill="white"/>
<path d="M132.875 18.0201C132.44 18.4508 131.864 18.813 131.162 19.0981C130.46 19.3831 129.629 19.5277 128.693 19.5277C127.069 19.5277 125.747 18.9547 124.652 17.7759C123.605 16.645 123.096 15.328 123.096 13.749C123.096 12.1557 123.559 10.788 124.473 9.68355C125.446 8.50594 126.689 7.8679 128.279 7.73316C128.371 7.72452 128.55 7.71358 128.887 7.71358C129.912 7.71358 130.918 7.95774 131.878 8.4403L131.886 8.44433C132.191 8.58887 132.558 8.82554 132.979 9.14801L133.305 9.39793L135.001 7.1694L134.642 6.93273C133.98 6.49566 133.409 6.16858 132.944 5.9607C131.515 5.31172 130.063 4.98291 128.629 4.98291C126.218 4.98291 124.189 5.84323 122.597 7.5391C121.013 9.2269 120.21 11.2804 120.21 13.6419C120.21 16.053 121.068 18.1174 122.76 19.7782C124.451 21.4383 126.571 22.2796 129.061 22.2796C130.48 22.2796 131.843 21.9088 133.112 21.1752C133.519 20.9362 134.004 20.5769 134.553 20.1064L134.839 19.8617L133.209 17.689L132.875 18.0201Z" fill="white"/>
<path d="M115.505 6.02567L105.618 15.818L101.643 11.8826L107.556 6.02682L105.445 3.93534L101.476 0.00403093H109.415L109.42 0L109.424 0.00403093L111.53 2.09033L111.532 2.08917L115.505 6.02567Z" fill="#2798D8"/>
<path d="M117.261 8.64222V16.339L109.644 23.8832H101.697L105.525 20.0935L117.173 8.55469L117.261 8.64222Z" fill="#2798D8"/>
<path d="M117.261 8.64222V16.339L109.644 23.8832H101.697L105.525 20.0935L117.173 8.55469L117.261 8.64222Z" fill="url(#paint0_linear_807:1747)"/>
<path d="M109.351 23.8839H101.404L93.4215 15.9775L93.3552 15.9119L93.4215 15.8451V8.10571L97.3285 11.9754L109.351 23.8839Z" fill="#2798D8"/>
<path d="M109.351 23.8839H101.404L93.4215 15.9775L93.3552 15.9119L93.4215 15.8451V8.10571L97.3285 11.9754L109.351 23.8839Z" fill="#2798D8"/>
<path d="M109.351 23.8839H101.404L93.4215 15.9775L93.3552 15.9119L93.4215 15.8451V8.10571L97.3285 11.9754L109.351 23.8839Z" fill="url(#paint1_linear_807:1747)"/>
<path d="M101.476 0.00403093H109.415L105.446 3.93534L93.421 15.845V8.10563L93.3547 8.03998L93.421 7.97318L101.471 0L101.476 0.00403093Z" fill="#2798D8"/>
<path d="M101.476 0.00403093H109.415L105.446 3.93534L93.421 15.845V8.10563L93.3547 8.03998L93.421 7.97318L101.471 0L101.476 0.00403093Z" fill="url(#paint2_linear_807:1747)"/>
</g>
<defs>
<linearGradient id="paint0_linear_807:1747" x1="117.5" y1="10" x2="104.5" y2="23.5" gradientUnits="userSpaceOnUse">
<stop stop-opacity="0"/>
<stop offset="1" stop-opacity="0.4"/>
</linearGradient>
<linearGradient id="paint1_linear_807:1747" x1="93.5004" y1="9" x2="106.5" y2="24" gradientUnits="userSpaceOnUse">
<stop stop-opacity="0.5"/>
<stop offset="1" stop-opacity="0"/>
</linearGradient>
<linearGradient id="paint2_linear_807:1747" x1="108" y1="-0.5" x2="92.5004" y2="14" gradientUnits="userSpaceOnUse">
<stop stop-opacity="0.4"/>
<stop offset="1" stop-color="#242424" stop-opacity="0"/>
</linearGradient>
<clipPath id="clip0_807:1747">
<rect width="135" height="28" fill="white" transform="translate(0.000183105)"/>
</clipPath>
</defs>
</svg>
