<svg width="32" height="32" viewBox="0 0 32 32" fill="none" xmlns="http://www.w3.org/2000/svg">
<path d="M15.9999 0V32C24.8368 32 32.0002 24.8366 32.0002 16.0002C32.0002 7.16289 24.8367 0 15.9999 0Z" fill="#252F6B"/>
<path d="M16.0004 0C7.1641 0 0.000671387 7.16316 0.000671387 16C0.000671387 24.8363 7.1641 31.9997 16.0004 31.9997C24.8372 31.9997 24.8372 0 16.0004 0Z" fill="#273375"/>
<path d="M10.9727 24.5269L12.0517 23.1818L10.3849 23.4837L9.80658 21.8691L9.17804 23.4837L7.47629 23.1818L8.5578 24.4973L7.43488 25.8113L9.14642 25.5425L9.72369 27.1237L10.3525 25.5432L12.0982 25.8552L10.9727 24.5269Z" fill="#F3F4F5"/>
<path d="M23.7263 25.7147L24.3382 24.9525L23.3933 25.1235L23.0657 24.2087L22.7094 25.1235L21.7451 24.9525L22.358 25.6975L21.7219 26.4425L22.6915 26.29L23.0186 27.1856L23.3749 26.2904L24.3642 26.4673L23.7263 25.7147Z" fill="#F3F4F5"/>
<path d="M23.7263 8.87267L24.3382 8.11023L23.3933 8.28148L23.0657 7.3667L22.7094 8.28148L21.7451 8.11023L22.358 8.85571L21.7219 9.60026L22.6915 9.44792L23.0186 10.344L23.3749 9.44839L24.3642 9.62498L23.7263 8.87267Z" fill="#F3F4F5"/>
<path d="M27.6843 13.2295L28.2957 12.4671L27.3514 12.6384L27.0237 11.7236L26.6675 12.6384L25.7027 12.4671L26.3155 13.2126L25.6794 13.9574L26.6491 13.8048L26.9762 14.7009L27.3324 13.8053L28.3217 13.9819L27.6843 13.2295Z" fill="#F3F4F5"/>
<path d="M20.3021 15.1666L20.914 14.4043L19.9692 14.5757L19.6414 13.6609L19.2853 14.5757L18.3212 14.4043L18.9339 15.1494L18.2979 15.8944L19.2676 15.742L19.5948 16.6374L19.9509 15.7426L20.9403 15.9192L20.3021 15.1666Z" fill="#F3F4F5"/>
<path d="M3.36015 6.1958C3.10904 6.5194 2.86929 6.85164 2.6427 7.19395H4.35783L3.36015 6.1958Z" fill="#29337A"/>
<path d="M11.6226 16H13.1639L11.6226 14.4587V16Z" fill="#29337A"/>
<path d="M6.51361 3.1167C6.1465 3.38753 5.79311 3.67478 5.45081 3.97514L6.51361 5.03747V3.1167Z" fill="#29337A"/>
<path d="M4.97186 16H6.51364V14.4583L4.97186 16Z" fill="#29337A"/>
<path d="M15.9997 0C14.4814 0 13.0146 0.215978 11.6226 0.611387V5.03749L16.0002 0.660096V0H15.9997Z" fill="#29337A"/>
<path d="M16.0003 14.5249V12.3035H13.7789L16.0003 14.5249Z" fill="#29337A"/>
<path d="M0.660163 16L4.3574 12.3035H0.434254C0.153083 13.4906 0 14.7272 0 16H0.660163Z" fill="#29337A"/>
<path d="M13.7774 7.19384H16.0003V4.97144L13.7774 7.19384Z" fill="#29337A"/>
<path d="M16 14.9914V14.5248L13.7786 12.3034H16V11.5078H12.5164L16 14.9914Z" fill="white"/>
<path d="M4.35765 7.19404H2.64252C2.47127 7.45352 2.30852 7.71902 2.15213 7.98884H5.52152L3.52164 5.9895C3.46685 6.05773 3.41301 6.12671 3.3597 6.19562L4.35765 7.19404Z" fill="white"/>
<path d="M6.51324 14.4581V15.9998H7.30831V13.2942L4.60287 15.9998H4.97146L6.51324 14.4581Z" fill="white"/>
<path d="M11.6223 0.611084C11.3542 0.687153 11.0894 0.769977 10.8275 0.859152V6.20132L15.9999 1.02919V0.660603L11.6223 5.03719V0.611084Z" fill="white"/>
<path d="M6.48527 12.3033L6.51331 12.2753L7.28055 11.5081H0.643656C0.567114 11.7705 0.497125 12.0355 0.43396 12.3033H4.35711L0.659869 15.9998H2.78858L6.48527 12.3033Z" fill="white"/>
<path d="M0.659973 16L4.35721 12.3035L0.659973 16Z" fill="white"/>
<path d="M15.9999 7.98891V7.19384H13.777L15.9999 4.97143V2.84326L10.854 7.98891H15.9999Z" fill="white"/>
<path d="M15.9999 4.97144L13.777 7.19384L15.9999 4.97144Z" fill="white"/>
<path d="M6.51339 5.03781L5.45059 3.97548C5.07369 4.30671 4.71186 4.65531 4.36752 5.02065L6.51339 7.16652L6.53616 7.18976L7.30846 7.96207V2.56909C7.03817 2.74467 6.77213 2.92579 6.51366 3.11677V5.03781H6.51339Z" fill="white"/>
<path d="M11.6225 14.4585L13.1638 15.9998H15.1945L10.8275 11.6331V15.9998H11.6225V14.4585Z" fill="white"/>
<path d="M6.51367 7.1665L6.53644 7.18974L6.51367 7.1665Z" fill="#D32030"/>
<path d="M13.3115 12.3034L12.5167 11.5081H16.0002V7.98896H10.8544L10.8278 8.01598V7.98896H10.8544L16.0002 2.84358V1.02914L10.8275 6.20155V0.859375C9.57727 1.2866 8.39746 1.86306 7.30838 2.56916V7.96187L7.33594 7.98889H7.30838V7.96187L6.53607 7.18963L6.5406 7.19416H6.51358V7.16659L4.36771 5.02073C4.07316 5.3325 3.79098 5.65535 3.5219 5.98983L5.52171 7.98916H2.15239C1.51574 9.08662 1.0067 10.2659 0.643921 11.5083H7.28082L7.30838 11.4803V11.5083H7.28082L6.51358 12.2756V12.3037H6.48554L2.78878 16H4.60321L7.30865 13.2942V16H10.8278V11.6332L15.1946 16H15.7951C15.8635 15.9285 15.9333 15.8575 16.0005 15.784V14.9914L13.3115 12.3034Z" fill="#D32030"/>
<path d="M10.8274 6.2017L16.0001 1.0293L10.8274 6.2017Z" fill="#D32030"/>
<path d="M6.51363 12.3035V12.2751L6.4856 12.3035H6.51363Z" fill="#D32030"/>
<path d="M7.30847 11.48L7.2807 11.508H7.30847V11.48Z" fill="#D32030"/>
<path d="M10.8274 8.01604L10.8542 7.98901H10.8274V8.01604Z" fill="#D32030"/>
<path d="M6.51367 7.194H6.54096L6.53644 7.18974L6.51367 7.1665V7.194Z" fill="#D32030"/>
<path d="M7.33588 7.98921L7.30838 7.96191V7.98921H7.33588Z" fill="#D32030"/>
</svg>
