<svg width="32" height="32" viewBox="0 0 32 32" fill="none" xmlns="http://www.w3.org/2000/svg">
<path d="M16.0011 31.9997C24.837 31.9997 32 24.8367 32 16.0008C32 7.16488 24.837 0.00195312 16.0011 0.00195312C7.16519 0.00195312 0.0022583 7.16488 0.0022583 16.0008C0.0022583 24.8367 7.16519 31.9997 16.0011 31.9997Z" fill="white"/>
<path d="M0 15.9998C0 22.0136 3.31975 27.2497 8.22465 29.9828V2.01611C3.31975 4.74949 0 9.98534 0 15.9998Z" fill="#D32027"/>
<path d="M15.999 31.9988C15.8149 31.9988 15.6377 31.9925 15.4572 31.9895C15.6366 31.9955 15.8172 31.9988 15.999 31.9988Z" fill="white"/>
<path d="M15.9989 0C15.9938 0 15.9896 0.000270217 15.9845 0.000270217C15.9894 0.000270217 15.994 0 15.9989 0C24.8354 0 24.8354 31.9991 15.9989 31.9991C18.8162 31.9991 21.4614 31.2683 23.7607 29.99V2.00886C21.4613 0.730598 18.8161 0 15.9989 0Z" fill="#E7E7E7"/>
<path d="M23.7613 2.00879V29.9897C28.6736 27.2585 31.9991 22.0183 31.9991 15.9996C31.9991 9.98011 28.6736 4.73994 23.7613 2.00879Z" fill="#B52025"/>
<path d="M15.9992 0C15.9942 0 15.9899 0 15.9848 0C13.1681 0.0024995 10.5229 0.735665 8.22449 2.01595V29.9824C10.3786 31.1827 12.8379 31.9021 15.4574 31.9893C15.638 31.9923 15.8151 31.9986 15.9992 31.9986C24.8357 31.9989 24.8357 0 15.9992 0Z" fill="#F3F1F2"/>
<path d="M22.208 15.7103C21.988 15.5002 21.5365 15.5234 21.4559 15.174C21.3493 14.3159 21.7442 13.8162 21.9933 13.2427C20.7327 13.5375 19.7389 14.0228 19.7399 12.5991C19.0161 13.484 18.238 14.3689 17.9166 14.2083C17.4602 13.94 18.3547 11.6624 18.4525 10.4537C18.0109 10.6553 17.1651 11.0974 17.1651 11.0974C17.1651 11.0974 16.3963 9.59378 15.9894 8.8521V8.84399C15.9879 8.84548 15.9879 8.84676 15.9874 8.84805C15.9864 8.84703 15.9864 8.84555 15.9853 8.84399V8.8521C15.5779 9.59378 14.8096 11.0974 14.8096 11.0974C14.8096 11.0974 13.9633 10.6553 13.5222 10.4537C13.6195 11.6626 14.5141 13.9402 14.0575 14.2083C13.736 14.3692 12.9581 13.484 12.2349 12.5991C12.2349 14.0228 11.2416 13.5376 9.98146 13.2427C10.2301 13.8159 10.6249 14.3156 10.5173 15.174C10.438 15.5234 9.98626 15.5002 9.76624 15.7103C11.2286 17.1723 13.7633 18.2581 12.556 19.4651L15.811 19.1614C15.9176 20.2613 15.5733 21.6111 15.8721 22.3621C15.9421 22.3621 15.9191 22.3621 15.9851 22.3621C15.9861 22.3621 15.9876 22.3621 15.9891 22.3621C16.0548 22.3621 16.0305 22.3621 16.1 22.3621C16.405 21.584 16.0566 20.2615 16.1632 19.1614L19.4178 19.4651C18.2116 18.2581 20.7462 17.1723 22.208 15.7103Z" fill="#D32027"/>
</svg>
